#!OML:ASF H:\Terrain\Patient Classification 1\Walking\steve\steve.ASF
:FULLY-SPECIFIED
:DEGREES
1
root 7.16817 15.0281 -32.399 5.43616 2.49337 2.57545
lowerback 2.93596 -0.274326 -1.33201
upperback -3.28271 -0.359472 1.70733
thorax -5.02322 -0.0945378 2.54261
lowerneck -11.2249 -0.819863 -4.0494
upperneck 13.7887 -0.883663 3.10609
head 6.05496 -0.39727 1.57488
rclavicle -6.5135e-015 7.15625e-015
rhumerus -71.8421 -31.777 -35.7718
rradius 15.9925
rwrist 43.7983
rhand 175.959 -68.7354
rfingers 7.12502
rthumb -158.285 -39.9333
lclavicle -6.5135e-015 7.15625e-015
lhumerus -19.452 -9.06822 86.5138
lradius 55.2535
lwrist 25.9685
lhand -28.7678 -17.6009
lfingers 7.12502
lthumb -2.12741 12.3682
rfemur -42.5181 4.93946 20.4066
rtibia 42.7979
rfoot -6.48412 5.61643
rtoes 6.95147
lfemur 7.71623 0.404835 -23.9937
ltibia 38.4591
lfoot 20.8937 11.5316
ltoes 30.0364
2
root 7.17015 15.0671 -32.157 5.24297 2.21105 2.098
lowerback 3.13819 -0.138954 -0.845077
upperback -3.18881 -0.149026 1.80059
thorax -5.05188 -0.00650204 2.35099
lowerneck -11.3931 -0.796715 -4.03525
upperneck 13.818 -0.886925 3.34995
head 6.09376 -0.37775 1.65011
rclavicle 1.69278e-015 2.38542e-014
rhumerus -70.4824 -31.9534 -37.5372
rradius 16.0298
rwrist 42.99
rhand 175.266 -67.8575
rfingers 7.12502
rthumb -158.951 -38.9799
lclavicle 1.69278e-015 2.38542e-014
lhumerus -20.0866 -8.64856 86.7509
lradius 54.8843
lwrist 26.3637
lhand -28.5103 -17.5647
lfingers 7.12502
lthumb -1.87872 12.4067
rfemur -41.4539 5.07413 21.2117
rtibia 43.095
rfoot -7.18621 5.87947
rtoes 6.40897
lfemur 5.71339 0.437396 -23.4126
ltibia 42.5765
lfoot 22.6302 14.5067
ltoes 26.994
3
root 7.16947 15.1061 -31.9114 5.00166 2.02429 1.64356
lowerback 3.25251 -0.0410552 -0.35999
upperback -3.02833 0.00927972 1.8469
thorax -4.95599 0.0536321 2.11372
lowerneck -11.4634 -0.839653 -4.03174
upperneck 13.6931 -0.975669 3.57208
head 6.07056 -0.402345 1.71198
rclavicle 1.21662e-014 -3.18055e-015
rhumerus -68.6515 -31.9014 -40.1485
rradius 16.1316
rwrist 41.6852
rhand 176.284 -69.3013
rfingers 7.12502
rthumb -157.973 -40.5356
lclavicle 1.21662e-014 -3.18055e-015
lhumerus -20.6793 -8.29272 86.9544
lradius 54.5039
lwrist 26.6437
lhand -28.4662 -17.1125
lfingers 7.12502
lthumb -1.83617 12.8594
rfemur -40.3148 5.1097 21.9818
rtibia 43.4496
rfoot -8.07114 6.22737
rtoes 5.69338
lfemur 4.0213 0.644912 -22.7972
ltibia 46.1477
lfoot 23.1371 14.3887
ltoes 17.9944
4
root 7.16777 15.1396 -31.6696 4.71038 2.00679 1.50181
lowerback 3.4487 0.0459819 -0.0849812
upperback -2.87196 0.135075 1.72965
thorax -4.9079 0.103021 1.82761
lowerneck -11.4837 -0.949851 -3.91607
upperneck 13.6088 -1.16645 3.71838
head 6.05509 -0.477155 1.72269
rclavicle 6.10642e-015 -4.77083e-015
rhumerus -66.9521 -31.8644 -42.7676
rradius 16.3533
rwrist 40.3776
rhand 176.687 -69.7312
rfingers 7.12502
rthumb -157.586 -41.0117
lclavicle 6.10642e-015 -4.77083e-015
lhumerus -21.2119 -8.15615 87.1716
lradius 53.8661
lwrist 26.7662
lhand -28.1876 -16.666
lfingers 7.12502
lthumb -1.5671 13.308
rfemur -39.2184 5.11037 22.3264
rtibia 43.8406
rfoot -8.83848 6.63361
rtoes 6.15257
lfemur 2.42649 0.971458 -22.4741
ltibia 49.5111
lfoot 22.1269 17.7587
ltoes 20.0361
5
root 7.16437 15.1671 -31.4353 4.51212 1.97404 1.56834
lowerback 3.50256 0.15811 -0.181643
upperback -2.68203 0.273717 1.65036
thorax -4.74483 0.171977 1.78827
lowerneck -11.5366 -1.13704 -4.11571
upperneck 13.49 -1.42739 4.02151
head 6.04056 -0.589834 1.82893
rclavicle 1.95679e-015 1.90833e-014
rhumerus -65.6343 -32.5127 -44.0351
rradius 16.3399
rwrist 40.2462
rhand 176.622 -69.7576
rfingers 7.12502
rthumb -157.649 -41.0304
lclavicle 1.95679e-015 1.90833e-014
lhumerus -21.748 -8.08571 87.5344
lradius 53.2269
lwrist 26.7432
lhand -28.0815 -16.5191
lfingers 7.12502
lthumb -1.46459 13.4556
rfemur -38.2049 4.97231 22.4591
rtibia 44.1662
rfoot -9.61674 7.06791
rtoes 5.2795
lfemur 0.760827 1.43613 -22.3965
ltibia 52.7261
lfoot 21.2803 13.6783
ltoes 10.3177
6
root 7.15758 15.191 -31.2053 4.47291 1.81539 1.35849
lowerback 3.4634 0.277723 -0.208235
upperback -2.60059 0.43617 1.77632
thorax -4.64454 0.254932 1.92128
lowerneck -11.4074 -1.26928 -4.41526
upperneck 13.3016 -1.591 4.26393
head 5.9702 -0.667159 1.94051
rclavicle -1.06474e-014 1.59028e-015
rhumerus -64.0376 -32.9995 -45.2704
rradius 16.212
rwrist 40.3517
rhand 176.469 -69.5631
rfingers 7.12502
rthumb -157.796 -40.8185
lclavicle -1.06474e-014 1.59028e-015
lhumerus -22.5111 -7.98558 88.0196
lradius 52.6165
lwrist 26.7167
lhand -28.2331 -16.2619
lfingers 7.12502
lthumb -1.61103 13.7117
rfemur -37.2419 4.9533 22.8987
rtibia 44.316
rfoot -10.3286 7.35421
rtoes 3.66301
lfemur -1.16788 1.9732 -22.0462
ltibia 55.8889
lfoot 18.5006 11.5626
ltoes 5.94664
7
root 7.14955 15.2231 -30.9728 4.45031 1.74403 0.803062
lowerback 3.37032 0.383589 0.208177
upperback -2.5565 0.604667 1.91448
thorax -4.5489 0.327105 1.81809
lowerneck -11.2862 -1.27628 -4.18117
upperneck 13.3058 -1.62924 4.15113
head 5.94976 -0.683787 1.86311
rclavicle -4.00675e-015 -2.06736e-014
rhumerus -62.311 -33.1733 -47.0664
rradius 16.2396
rwrist 40.0443
rhand 176.249 -69.4568
rfingers 7.12502
rthumb -158.007 -40.6871
lclavicle -4.00675e-015 -2.06736e-014
lhumerus -23.1201 -7.92304 88.4458
lradius 51.4468
lwrist 26.4978
lhand -28.3723 -15.6564
lfingers 7.12502
lthumb -1.74547 14.3162
rfemur -36.161 5.12525 23.6452
rtibia 44.2156
rfoot -11.0551 7.60316
rtoes 4.58655
lfemur -3.33351 2.4354 -21.2824
ltibia 58.9917
lfoot 15.7811 9.25268
ltoes -1.05668
8
root 7.14264 15.2617 -30.7391 4.38938 1.75775 0.441131
lowerback 3.272 0.510238 0.536996
upperback -2.49647 0.787343 1.87944
thorax -4.43103 0.406483 1.58441
lowerneck -11.1991 -1.31526 -3.91384
upperneck 13.4185 -1.7447 4.21358
head 5.97362 -0.722134 1.82998
rclavicle 1.26725e-015 -1.35174e-014
rhumerus -60.3499 -33.0161 -49.7277
rradius 16.4982
rwrist 38.8242
rhand 175.97 -69.3787
rfingers 7.12502
rthumb -158.275 -40.5778
lclavicle 1.26725e-015 -1.35174e-014
lhumerus -23.5899 -8.03108 88.7792
lradius 49.8899
lwrist 25.9837
lhand -28.9258 -13.8124
lfingers 7.12502
lthumb -2.28002 16.1552
rfemur -34.9194 5.11298 24.1935
rtibia 43.8429
rfoot -11.7385 7.94275
rtoes 5.96319
lfemur -5.58156 2.89322 -20.7342
ltibia 61.8767
lfoot 13.5597 7.11531
ltoes -4.96396
9
root 7.13422 15.3066 -30.5119 4.51264 1.73124 0.339838
lowerback 3.20586 0.588589 0.462434
upperback -2.58716 0.888514 1.86816
thorax -4.49126 0.459319 1.60788
lowerneck -10.9881 -1.34678 -4.07391
upperneck 13.5297 -1.81846 4.52851
head 5.97966 -0.744046 1.95142
rclavicle 5.83309e-015 -2.14687e-014
rhumerus -57.4958 -31.7135 -53.8638
rradius 17.0916
rwrist 36.0504
rhand 175.384 -68.7323
rfingers 7.12502
rthumb -158.837 -39.8674
lclavicle 5.83309e-015 -2.14687e-014
lhumerus -24.3946 -8.04574 89.1365
lradius 48.4813
lwrist 25.4163
lhand -30.2698 -12.2962
lfingers 7.12502
lthumb -3.57801 17.6535
rfemur -33.7966 4.93186 24.5008
rtibia 43.2743
rfoot -12.2909 8.11579
rtoes 5.03234
lfemur -8.03743 3.36479 -20.5431
ltibia 64.3648
lfoot 10.7815 5.68483
ltoes -7.24861
10
root 7.12548 15.3572 -30.2813 4.62282 1.49771 -0.111234
lowerback 3.08157 0.697481 0.627512
upperback -2.66928 1.05 2.0546
thorax -4.51132 0.537947 1.69792
lowerneck -10.8571 -1.33493 -4.24616
upperneck 13.7645 -1.7994 4.62574
head 6.03254 -0.737145 2.01408
rclavicle -1.1778e-014 -6.36111e-015
rhumerus -55.2588 -31.0996 -56.1556
rradius 17.3216
rwrist 34.7453
rhand 175.773 -69.6112
rfingers 7.12502
rthumb -158.464 -40.7885
lclavicle -1.1778e-014 -6.36111e-015
lhumerus -25.3523 -7.82807 89.5504
lradius 47.0987
lwrist 24.645
lhand -30.7436 -12.5914
lfingers 7.12502
lthumb -4.03558 17.3501
rfemur -32.5894 4.95249 25.1986
rtibia 42.6361
rfoot -13.0351 8.17254
rtoes 3.0826
lfemur -10.3091 3.91398 -19.955
ltibia 66.374
lfoot 6.27439 4.7004
ltoes -9.78521
11
root 7.12463 15.4102 -30.0429 4.52908 1.10682 -0.629633
lowerback 3.02113 0.955184 0.998376
upperback -2.65902 1.41738 2.18932
thorax -4.47074 0.711077 1.60458
lowerneck -10.6766 -1.50979 -4.31261
upperneck 13.8673 -2.02277 4.54308
head 6.04444 -0.857177 1.98085
rclavicle 1.92479e-014 1.51076e-014
rhumerus -53.2845 -30.6768 -58.167
rradius 17.6551
rwrist 33.8999
rhand 177.857 -70.4946
rfingers 7.12502
rthumb -156.464 -41.9145
lclavicle 1.92479e-014 1.51076e-014
lhumerus -26.2649 -8.16782 90.0944
lradius 45.4768
lwrist 24.0758
lhand -29.4101 -13.5929
lfingers 7.12502
lthumb -2.74779 16.3692
rfemur -31.1288 5.15094 25.91
rtibia 42.0408
rfoot -13.9435 8.44642
rtoes 3.50906
lfemur -12.1713 4.48327 -19.3217
ltibia 67.9674
lfoot 6.29174 5.37034
ltoes -1.57355
12
root 7.12993 15.4644 -29.8079 4.4166 0.880422 -0.668284
lowerback 3.01068 1.17934 1.04255
upperback -2.61896 1.71486 2.11529
thorax -4.42588 0.856246 1.48319
lowerneck -10.5753 -1.72133 -4.31265
upperneck 14.0294 -2.30855 4.47433
head 6.09091 -1.00178 1.93585
rclavicle 3.03861e-014 2.38542e-015
rhumerus -51.1647 -30.0391 -60.5893
rradius 18.2503
rwrist 32.5558
rhand 178.717 -70.1955
rfingers 7.12502
rthumb -155.64 -41.7238
lclavicle 3.03861e-014 2.38542e-015
lhumerus -27.0609 -8.75993 90.6613
lradius 43.5175
lwrist 23.4946
lhand -28.1626 -14.9785
lfingers 7.12502
lthumb -1.54292 14.9956
rfemur -29.6906 5.16512 26.0346
rtibia 41.4646
rfoot -14.5474 9.01183
rtoes 5.71734
lfemur -13.9831 4.93338 -19.331
ltibia 69.2246
lfoot 1.69723 4.98782
ltoes -14.1652
